<svg width="25" height="25" viewBox="0 0 25 25" fill="none" xmlns="http://www.w3.org/2000/svg">
<path d="M15.0461 10.2768L10.005 15.3178C9.35748 14.6702 8.95898 13.7836 8.95898 12.7973C8.95898 10.8247 10.553 9.23071 12.5256 9.23071C13.5118 9.23071 14.3985 9.62921 15.0461 10.2768Z" stroke="#D1D1D1" stroke-width="1.49438" stroke-linecap="round" stroke-linejoin="round"/>
<path d="M18.3229 6.59046C16.5794 5.27541 14.5869 4.55811 12.5247 4.55811C9.00791 4.55811 5.73025 6.63031 3.44884 10.2168C2.55221 11.6215 2.55221 13.9826 3.44884 15.3873C4.23587 16.6227 5.15242 17.6887 6.14867 18.5455" stroke="#D1D1D1" stroke-width="1.49438" stroke-linecap="round" stroke-linejoin="round"/>
<path d="M8.95898 20.2991C10.0947 20.7773 11.3002 21.0363 12.5256 21.0363C16.0423 21.0363 19.32 18.9641 21.6014 15.3776C22.498 13.9729 22.498 11.6118 21.6014 10.207C21.2726 9.68899 20.914 9.20083 20.5454 8.74255" stroke="#D1D1D1" stroke-width="1.49438" stroke-linecap="round" stroke-linejoin="round"/>
<path d="M16.0233 13.4952C15.7643 14.9 14.6186 16.0456 13.2139 16.3047" stroke="#D1D1D1" stroke-width="1.49438" stroke-linecap="round" stroke-linejoin="round"/>
<path d="M10.0055 15.318L2.56348 22.76" stroke="#D1D1D1" stroke-width="1.49438" stroke-linecap="round" stroke-linejoin="round"/>
<path d="M22.4879 2.83521L15.0459 10.2772" stroke="#D1D1D1" stroke-width="1.49438" stroke-linecap="round" stroke-linejoin="round"/>
</svg>
