<svg width="25" height="25" viewBox="0 0 25 25" fill="none" xmlns="http://www.w3.org/2000/svg">
<path d="M6.92188 10.8051V8.81258C6.92188 5.515 7.91813 2.83508 12.8994 2.83508C17.8806 2.83508 18.8769 5.515 18.8769 8.81258V10.8051" stroke="#D1D1D1" stroke-width="1.49438" stroke-linecap="round" stroke-linejoin="round"/>
<path d="M12.8988 19.2732C14.2744 19.2732 15.3895 18.1582 15.3895 16.7826C15.3895 15.4071 14.2744 14.292 12.8988 14.292C11.5233 14.292 10.4082 15.4071 10.4082 16.7826C10.4082 18.1582 11.5233 19.2732 12.8988 19.2732Z" stroke="#D1D1D1" stroke-width="1.49438" stroke-linecap="round" stroke-linejoin="round"/>
<path d="M17.8803 22.7598H7.91777C3.93277 22.7598 2.93652 21.7636 2.93652 17.7786V15.7861C2.93652 11.8011 3.93277 10.8048 7.91777 10.8048H17.8803C21.8653 10.8048 22.8615 11.8011 22.8615 15.7861V17.7786C22.8615 21.7636 21.8653 22.7598 17.8803 22.7598Z" stroke="#D1D1D1" stroke-width="1.49438" stroke-linecap="round" stroke-linejoin="round"/>
</svg>
